<svg xmlns="http://www.w3.org/2000/svg" width="47.094" height="48" viewBox="0 0 47.094 48">
  <metadata><?xpacket begin="﻿" id="W5M0MpCehiHzreSzNTczkc9d"?>
<x:xmpmeta xmlns:x="adobe:ns:meta/" x:xmptk="Adobe XMP Core 5.6-c138 79.159824, 2016/09/14-01:09:01        ">
   <rdf:RDF xmlns:rdf="http://www.w3.org/1999/02/22-rdf-syntax-ns#">
      <rdf:Description rdf:about=""/>
   </rdf:RDF>
</x:xmpmeta>
                                                                                                    
                                                                                                    
                                                                                                    
                                                                                                    
                                                                                                    
                                                                                                    
                                                                                                    
                                                                                                    
                                                                                                    
                                                                                                    
                                                                                                    
                                                                                                    
                                                                                                    
                                                                                                    
                                                                                                    
                                                                                                    
                                                                                                    
                                                                                                    
                                                                                                    
                                                                                                    
                           
<?xpacket end="w"?></metadata>
<defs>
    <style>
      .cls-1 {
        fill: #fff;
        fill-rule: evenodd;
      }
    </style>
  </defs>
  <path id="Ironing_icon" data-name="Ironing icon" class="cls-1" d="M139.528,1280.02a21.585,21.585,0,0,0-3.416,1.86,1.553,1.553,0,0,0-.164.12H103.924a19.747,19.747,0,0,1,.592-2.02c26.373-.02,35.771-2.28,38.545-3.31l0.343,2.09A21.32,21.32,0,0,0,139.528,1280.02Zm-23.964-12.96,0.084-.06c0.247-.16,1.456-0.85,1.943-1.1l0.292-.15a27.566,27.566,0,0,1,2.574-1.16,38.677,38.677,0,0,1,19.439-2l2.762,12.04c-1.905.75-10.53,3.4-37.273,3.48A27.969,27.969,0,0,1,115.564,1267.06Zm32.262-5.52a20.389,20.389,0,0,0-5.617,1.4l-0.214-.98a2.021,2.021,0,0,0-1.7-1.52,40.8,40.8,0,0,0-20.644,2.12,27.619,27.619,0,0,0-2.769,1.25l-0.272.14a15.836,15.836,0,0,0-2.212,1.25c-8.5,5.3-11.736,14.24-12.339,16.03a2.02,2.02,0,0,0,.207,1.88,2.046,2.046,0,0,0,1.672.89H136.3a1.082,1.082,0,0,0,.7-0.26c0.117-.07.245-0.17,0.4-0.28a23.836,23.836,0,0,1,3.033-1.45,19.521,19.521,0,0,1,3.771-1.19,1.21,1.21,0,0,0,.265-0.08,2.024,2.024,0,0,0,1.111-2.29l-2.9-13.34h0.009a18.578,18.578,0,0,1,5.276-1.39A1.092,1.092,0,1,0,147.826,1261.54ZM136.486,1286H103.045a0.947,0.947,0,0,0-1.093.9,1.093,1.093,0,0,0,1.093,1.09h33.441a1.093,1.093,0,0,0,1.094-1.09A0.947,0.947,0,0,0,136.486,1286Zm-4.437-16.19-5.6.4a0.93,0.93,0,0,0-.868,1,0.94,0.94,0,0,0,.934.87h0.068l5.6-.4a0.945,0.945,0,0,0,.868-1.01A0.925,0.925,0,0,0,132.049,1269.81Zm-3.244-2.74a17.3,17.3,0,0,1,4.065-.62c1.549,0,1.929.42,1.984,0.5l0.009,0.04c0.96,3.65.384,4.97,0.091,5.37a0.945,0.945,0,0,1-.566.39h-0.109l-16.407,1.13C121.141,1269.42,128.76,1267.09,128.805,1267.07Zm-12.89,9.14h0.076l18.4-1.28a3.035,3.035,0,0,0,2.27-1.21c1.1-1.42,1.208-3.87.32-7.26-0.111-.52-0.733-2.19-4.116-2.19a19.791,19.791,0,0,0-4.647.69c-0.431.13-10.581,3.23-13.316,9.73A1.1,1.1,0,0,0,115.915,1276.21Z" transform="translate(-101.906 -1250)"/>
</svg>
