<svg xmlns="http://www.w3.org/2000/svg" width="40" height="40" viewBox="0 0 40 40">
  <metadata><?xpacket begin="﻿" id="W5M0MpCehiHzreSzNTczkc9d"?>
<x:xmpmeta xmlns:x="adobe:ns:meta/" x:xmptk="Adobe XMP Core 5.6-c138 79.159824, 2016/09/14-01:09:01        ">
   <rdf:RDF xmlns:rdf="http://www.w3.org/1999/02/22-rdf-syntax-ns#">
      <rdf:Description rdf:about=""/>
   </rdf:RDF>
</x:xmpmeta>
                                                                                                    
                                                                                                    
                                                                                                    
                                                                                                    
                                                                                                    
                                                                                                    
                                                                                                    
                                                                                                    
                                                                                                    
                                                                                                    
                                                                                                    
                                                                                                    
                                                                                                    
                                                                                                    
                                                                                                    
                                                                                                    
                                                                                                    
                                                                                                    
                                                                                                    
                                                                                                    
                           
<?xpacket end="w"?></metadata>
<defs>
    <style>
      .cls-1 {
        fill: #fff;
        fill-rule: evenodd;
      }
    </style>
  </defs>
  <path id="Ironing_Laundry_icon" data-name="Ironing &amp; Laundry icon" class="cls-1" d="M621.641,1258.12c-0.1-.1-0.3-0.27-0.571-0.5-2.85-2.35-3.6-3.62-3.7-4.29v-0.1l-0.009-.14a0.672,0.672,0,0,1,.037-0.17c0.1-.27.921-1.94,7.5-1.94,0.1,0-.183-0.02-0.091-0.04a1.314,1.314,0,0,0,.284.04c6.577,0,7.4,1.67,7.5,1.94a0.672,0.672,0,0,1,.037.17l-0.008.14v0.1c-0.1.67-.851,1.94-3.7,4.29-0.272.23-.474,0.4-0.571,0.5-0.591.58-2.474,2.05-3.537,2.86A41.075,41.075,0,0,1,621.641,1258.12Zm-4.617,6.77v-7.43a28.251,28.251,0,0,0,2.531,1.95c0.2,0.16.344,0.28,0.416,0.35,0.537,0.53,1.77,1.51,2.768,2.29Zm15.967,0-5.746-2.84c1-.78,2.23-1.76,2.767-2.29,0.072-.07.221-0.19,0.416-0.35a28.389,28.389,0,0,0,2.563-1.95v7.43Zm5.808-10.19h-1.816v2.33h2.191a0.848,0.848,0,0,1,.843.83l-0.011,16.11h-7.8a1.1,1.1,0,0,0-1.18,1.07,1.032,1.032,0,0,0,1.18.98h7.8l0.011,10.99H625.985v-22.98l7.253,3.83a1.217,1.217,0,0,0,.557.14,1.2,1.2,0,0,0,.607-0.17,1.163,1.163,0,0,0,.573-1v-13.41a2.985,2.985,0,0,0-.171-1.3c-0.786-2.13-3.873-3.12-9.716-3.12a1.315,1.315,0,0,0-.284.03c-0.092-.02.189-0.03,0.091-0.03-5.843,0-8.93.99-9.716,3.12a3,3,0,0,0-.171,1.3v13.41a1.162,1.162,0,0,0,.574,1,1.2,1.2,0,0,0,.606.17,1.22,1.22,0,0,0,.557-0.14l7.255-3.84v22.99H610.023v-29.15a0.848,0.848,0,0,1,.843-0.83h2.18v-2.33H611.2a3.186,3.186,0,0,0-3.2,3.16v29.98a1.17,1.17,0,0,0,1.18,1.16h31.645a1.169,1.169,0,0,0,1.179-1.16v-29.98A3.186,3.186,0,0,0,638.8,1254.7Z" transform="translate(-605 -1249)"/>
</svg>
