<svg xmlns="http://www.w3.org/2000/svg" width="40" height="40" viewBox="0 0 40 40">
  <metadata><?xpacket begin="﻿" id="W5M0MpCehiHzreSzNTczkc9d"?>
<x:xmpmeta xmlns:x="adobe:ns:meta/" x:xmptk="Adobe XMP Core 5.6-c138 79.159824, 2016/09/14-01:09:01        ">
   <rdf:RDF xmlns:rdf="http://www.w3.org/1999/02/22-rdf-syntax-ns#">
      <rdf:Description rdf:about=""/>
   </rdf:RDF>
</x:xmpmeta>
                                                                                                    
                                                                                                    
                                                                                                    
                                                                                                    
                                                                                                    
                                                                                                    
                                                                                                    
                                                                                                    
                                                                                                    
                                                                                                    
                                                                                                    
                                                                                                    
                                                                                                    
                                                                                                    
                                                                                                    
                                                                                                    
                                                                                                    
                                                                                                    
                                                                                                    
                                                                                                    
                           
<?xpacket end="w"?></metadata>
<defs>
    <style>
      .cls-1 {
        fill: #fff;
        fill-rule: evenodd;
      }
    </style>
  </defs>
  <path id="Laundry_icon" data-name="Laundry icon" class="cls-1" d="M389,1294H361a2,2,0,0,1-2-2v-36a2,2,0,0,1,2-2h28a2,2,0,0,1,2,2v36A2,2,0,0,1,389,1294Zm0-38H361v8h28v-8Zm0,10H361v26h28v-26Zm-14,3a10,10,0,1,1-10,10A10,10,0,0,1,375,1269Zm-8,10a8,8,0,0,0,16,0h0a8,8,0,0,0-16,0h0Zm-2-20h6a1,1,0,0,1,0,2h-6A1,1,0,0,1,365,1259Zm16,0a1,1,0,1,1-1,1A1,1,0,0,1,381,1259Zm4,0a1,1,0,1,1-1,1A1,1,0,0,1,385,1259Zm-6.112,23.28A11.689,11.689,0,0,1,375,1281c-5.941-3.05-9,0-9,0v-2s3.059-3.05,9,0,9,0,9,0v2l-2,1Z" transform="translate(-355 -1254)"/>
</svg>
